<svg width="1728" height="1117" viewBox="0 0 1728 1117" fill="none" xmlns="http://www.w3.org/2000/svg">
<g opacity="0.15" filter="url(#filter0_f_1299_241)">
<path fill-rule="evenodd" clip-rule="evenodd" d="M1727.53 746.253C1837.57 661.28 1743.85 355.519 1518.2 63.3169C1303.3 -214.976 1046.23 -380.603 927.189 -322.335C939.915 -346.926 956.718 -367.647 977.755 -383.892C1149.8 -516.747 1539.84 -299.957 1848.95 100.323C2158.05 500.602 2269.16 932.793 2097.12 1065.65C1925.08 1198.5 1535.03 981.712 1225.93 581.433C1108.88 429.862 1020.23 273.716 964.582 130.979C1005.25 208.746 1057.46 290.404 1119.72 371.03C1345.37 663.232 1617.49 831.225 1727.53 746.253Z" fill="#93A0DF"/>
<path fill-rule="evenodd" clip-rule="evenodd" d="M1994.96 786.605C2045.68 575.237 1688.13 308.227 1196.36 190.22C704.582 72.2138 264.803 147.899 214.083 359.267C163.363 570.635 520.91 837.645 1012.69 955.652C1504.46 1073.66 1944.24 997.973 1994.96 786.605ZM1729.77 682.736C1762.21 547.547 1497.49 368.121 1138.49 281.977C779.5 195.833 462.179 235.591 429.74 370.78C397.3 505.969 662.024 685.395 1021.02 771.539C1380.01 857.684 1697.33 817.925 1729.77 682.736Z" fill="#6635B7"/>
<path fill-rule="evenodd" clip-rule="evenodd" d="M1014.27 -372.185C965.008 -385.036 923.517 -381.548 894.264 -358.958C791.272 -279.426 878.991 6.75881 1090.19 280.253C1301.39 553.747 1556.09 710.985 1659.08 631.452C1693.66 604.749 1706.74 554.75 1700.87 489.757C1769.97 689.561 1765.62 855.615 1672.34 927.65C1511.31 1052 1146.24 849.088 856.923 474.437C567.608 99.785 463.611 -304.735 624.639 -429.084C710.576 -495.446 854.629 -468.601 1014.27 -372.185Z" fill="#A8D1E2"/>
<path fill-rule="evenodd" clip-rule="evenodd" d="M1511.36 -365.35C1433.21 -393.83 1359.93 -391.51 1308.26 -351.611C1199.28 -267.456 1227.73 -47.9919 1371.8 138.576C1515.88 325.144 1721.01 408.166 1829.99 324.012C1896.24 272.849 1911.7 171.675 1881.27 58.2857C2056.69 342.953 2105.33 617.015 1983.63 710.996C1840.52 821.503 1516.09 641.179 1258.98 308.23C1001.87 -24.7188 909.445 -384.211 1052.55 -494.719C1148.73 -568.995 1326.84 -511.883 1511.36 -365.35Z" fill="#D4EEEA"/>
</g>
<defs>
<filter id="filter0_f_1299_241" x="-44.9448" y="-781.463" width="2477.27" height="2140.43" filterUnits="userSpaceOnUse" color-interpolation-filters="sRGB">
<feFlood flood-opacity="0" result="BackgroundImageFix"/>
<feBlend mode="normal" in="SourceGraphic" in2="BackgroundImageFix" result="shape"/>
<feGaussianBlur stdDeviation="127.117" result="effect1_foregroundBlur_1299_241"/>
</filter>
</defs>
</svg>
